<?xml version="1.0" encoding="UTF-8"?>
<svg width="32px" height="32px" viewBox="0 0 32 32" version="1.1" xmlns="http://www.w3.org/2000/svg" xmlns:xlink="http://www.w3.org/1999/xlink">
    <title>face-happy</title>
    <g id="face-happy" stroke="none" stroke-width="1" fill="none" fill-rule="evenodd">
        <path d="M17,18 L15,18 C14.4477153,18 14,17.5522847 14,17 L14,3 C14,2.44771525 14.4477153,2 15,2 L17,2 C17.5522847,2 18,2.44771525 18,3 L18,17 C18,17.5522847 17.5522847,18 17,18 Z" id="path-1-path" fill="#FFC72C" fill-rule="nonzero"></path>
        <path d="M23,7 C24.6568542,7 26,8.34314575 26,10 C26,11.6568543 24.6568542,13 23,13 C21.3431458,13 20,11.6568543 20,10 C20,8.34314575 21.3431458,7 23,7 Z M9,7 C10.6568542,7 12,8.34314575 12,10 C12,11.6568543 10.6568542,13 9,13 C7.34314575,13 6,11.6568543 6,10 C6,8.34314575 7.34314575,7 9,7 Z" id="Combined-Shape" fill="#2C64FF" fill-rule="nonzero"></path>
        <path d="M6,21 C6.74612138,23.7636311 11.2781995,26 16,26 C20.7218005,26 25.2538786,23.7636311 26,21 C26,20.4477153 26.4477153,20 27,20 L29,20 C29.5522847,20 30,20.4477153 30,21 C29.295306,26.1417434 23.2086551,30 16,30 C8.79134491,30 2.70469397,26.1417434 2,21 C2,20.4477153 2.44771525,20 3,20 L5,20 C5.55228475,20 6,20.4477153 6,21 Z" id="path-1-path" fill="#EF3340" fill-rule="nonzero"></path>
    </g>
</svg>