<?xml version="1.0" encoding="UTF-8"?>
<svg width="32px" height="32px" viewBox="0 0 32 32" version="1.1" xmlns="http://www.w3.org/2000/svg" xmlns:xlink="http://www.w3.org/1999/xlink">
    <title>face-sad</title>
    <g id="face-sad" stroke="none" stroke-width="1" fill="none" fill-rule="evenodd">
        <path d="M17,18 L15,18 C14.4477153,18 14,17.5522847 14,17 L14,3 C14,2.44771525 14.4477153,2 15,2 L17,2 C17.5522847,2 18,2.44771525 18,3 L18,17 C18,17.5522847 17.5522847,18 17,18 Z" id="path-1-path" fill="#FFC72C" fill-rule="nonzero"></path>
        <path d="M23,7 C24.6568542,7 26,8.34314575 26,10 C26,11.6568542 24.6568542,13 23,13 C21.3431458,13 20,11.6568542 20,10 C20,8.34314575 21.3431458,7 23,7 Z M9,7 C10.6568543,7 12,8.34314575 12,10 C12,11.6568542 10.6568543,13 9,13 C7.34314575,13 6,11.6568542 6,10 C6,8.34314575 7.34314575,7 9,7 Z" id="Combined-Shape" fill="#2C64FF" fill-rule="nonzero"></path>
        <path d="M26,23 L26,25 C26,25.5522847 25.5522847,26 25,26 L7,26 C6.44771525,26 6,25.5522847 6,25 L6,23 C6,22.4477153 6.44771525,22 7,22 L25,22 C25.5522847,22 26,22.4477153 26,23 Z" id="path-1-path" fill="#EF3340" fill-rule="nonzero"></path>
    </g>
</svg>